<?xml version="1.0" standalone="no"?><!DOCTYPE svg PUBLIC "-//W3C//DTD SVG 1.1//EN" "http://www.w3.org/Graphics/SVG/1.1/DTD/svg11.dtd"><svg class="icon" width="256px" height="256.00px" viewBox="0 0 1024 1024" version="1.1" xmlns="http://www.w3.org/2000/svg"><path fill="#4e5969" d="M511.5392 84.6336A417.1776 417.1776 0 1 0 928.7168 501.76a417.6384 417.6384 0 0 0-417.1776-417.1264z m0 778.24A360.8576 360.8576 0 1 1 872.3968 501.76a361.216 361.216 0 0 1-360.8576 360.8576z"  /><path fill="#4e5969" d="M526.6944 309.8624a28.16 28.16 0 0 0-36.3008 0.4096L361.1648 421.632a28.16 28.16 0 0 0 36.7616 42.7008l81.92-70.8608v289.792a28.16 28.16 0 0 0 56.32 0V390.8096L621.3632 460.8a28.16 28.16 0 0 0 35.84-43.4688z"  /></svg>