<?xml version="1.0" standalone="no"?><!DOCTYPE svg PUBLIC "-//W3C//DTD SVG 1.1//EN" "http://www.w3.org/Graphics/SVG/1.1/DTD/svg11.dtd"><svg class="icon" width="256px" height="256.00px" viewBox="0 0 1024 1024" version="1.1" xmlns="http://www.w3.org/2000/svg"><path fill="#4e5969" d="M906.24 427.008l-74.24 4.608c-6.656 0.512-12.8-3.584-14.336-10.24-1.024-5.12-2.56-10.24-4.096-16.384C806.912 382.464 798.72 353.28 798.72 327.68v-16.384h-16.384c-164.864 0-311.808-104.448-340.48-151.04h-38.912c-2.048 24.064-9.728 44.544-21.504 56.32C347.136 250.88 289.28 250.88 250.88 250.88c-13.312 0-22.528 4.096-32.768 14.336-26.112 26.112-26.112 102.912-26.112 153.6 0 7.68-6.144 13.824-13.824 13.824H143.36V465.92c32.768 1.024 65.536 5.632 67.072 5.632l26.624 3.584v-19.968c-6.144-68.608 0-135.68 6.656-155.648 2.048-5.632 7.168-9.216 12.8-9.216 35.328 0 109.056 0 153.6-44.544 5.632-5.632 10.752-10.752 15.36-20.48 2.048-3.584 5.632-6.656 9.728-7.168 4.096-0.512 8.704 0.512 11.776 3.584C512.512 281.6 644.096 345.088 757.76 345.088c6.656 0 12.8 5.12 13.312 11.776 5.632 46.08 28.672 98.304 29.184 98.816 0 0.512 0.512 1.024 0.512 1.024l2.56 8.192 105.472-4.608-2.56-33.28z"  /><path fill="#4e5969" d="M912.896 502.272l2.048-4.608c11.264-27.648 11.264-56.32 11.264-79.36 0-229.376-179.712-409.088-409.088-409.088-229.888 0-409.6 179.712-409.6 409.088 0 24.576 4.096 45.056 9.216 69.12l3.584 16.384-1.536 3.072c-5.12 15.36-11.264 38.912-11.264 61.952C107.52 645.12 139.264 706.56 178.176 706.56h10.24l3.072 9.728c53.248 177.664 180.736 292.352 325.12 292.352 144.384 0 271.872-114.688 325.12-292.352l3.072-9.728h10.24c38.912 0 71.168-61.952 71.168-137.216 0-23.04-6.144-46.592-11.264-61.952l-2.048-5.12zM522.752 42.496c207.36 0 375.808 168.448 375.808 375.808 0 3.072 0 6.144-0.512 9.216-0.512 10.752-2.048 21.504-4.096 32.768-1.536 7.68-3.072 15.872-4.608 24.064-1.024 4.608-2.048 8.704-2.56 13.312V506.88c2.048 6.144 3.072 12.8 4.096 19.968l-33.28 52.736c-51.712 59.392-89.088 66.56-155.648 66.56-22.016 0-44.544-14.848-66.56-29.696-29.696-22.016-66.56-44.544-118.784-44.544-51.712 0-89.088 22.016-118.784 44.544-22.016 14.848-44.544 29.696-66.56 29.696-66.56 0-96.256-7.68-155.648-66.56l-23.04-29.184c0.512-15.36 1.536-29.184 6.144-43.52v-7.168c-4.608-12.288-7.68-23.04-9.216-33.792-2.048-11.776-2.56-23.04-2.56-33.792v-13.312c0-207.872 168.448-376.32 375.808-376.32z m85.504 857.088c-4.096 4.096-9.728 6.144-15.36 6.144-4.096 0-8.704-1.024-11.776-3.584-1.024-1.024-2.56-1.536-3.584-2.56l-23.552-23.552-42.496-41.984-65.536 65.536c-4.096 4.096-9.728 6.144-15.36 6.144s-11.264-2.048-15.36-6.144c-8.704-8.704-8.704-22.016 0-30.72L480.256 803.84l-65.024-65.024c-3.072-3.072-5.632-7.168-6.144-11.264-1.024-6.656 1.024-13.824 6.144-18.944l0.512-0.512c4.096-4.096 9.216-6.144 14.848-6.144 4.608 0 9.216 1.536 12.8 4.096 1.024 0.512 1.536 1.024 2.56 2.048L512 773.12l65.536-65.536c2.048-2.048 4.096-3.072 6.144-4.096 0.512 0 1.024-0.512 1.024-0.512 2.56-1.024 5.12-1.536 7.68-1.536 5.632 0 11.264 2.048 15.36 6.144 3.072 3.072 5.12 6.656 5.632 10.752 0.512 2.048 0.512 4.096 0.512 5.632v1.024c-0.512 4.608-2.56 9.216-6.144 12.8L542.72 803.328l65.536 65.536c8.704 8.704 8.704 22.016 0 30.72z"  /></svg>